<?xml version="1.0" encoding="UTF-8" standalone="no"?>
<!DOCTYPE svg PUBLIC "-//W3C//DTD SVG 1.1//EN"
 "http://www.w3.org/Graphics/SVG/1.1/DTD/svg11.dtd">
<!-- Generated by graphviz version 2.43.0 (0)
 -->
<!-- Title: G Pages: 1 -->
<svg width="711pt" height="1616pt"
 viewBox="0.00 0.00 711.17 1616.31" xmlns="http://www.w3.org/2000/svg" xmlns:xlink="http://www.w3.org/1999/xlink">
<g id="graph0" class="graph" transform="scale(1 1) rotate(0) translate(43.2 1573.11)">
<title>G</title>
<polygon fill="#101318" stroke="transparent" points="-43.2,43.2 -43.2,-1573.11 667.97,-1573.11 667.97,43.2 -43.2,43.2"/>
<text text-anchor="middle" x="312.39" y="-1498.71" font-family="Arial" font-size="34.00" fill="#f4f7fb">Deterministic Canonical Export</text>
<!-- start -->
<g id="node1" class="node">
<title>start</title>
<path fill="#202731" stroke="#5aa7ff" stroke-width="1.8" d="M336,-1470.45C336,-1470.45 163,-1470.45 163,-1470.45 157,-1470.45 151,-1464.45 151,-1458.45 151,-1458.45 151,-1416.45 151,-1416.45 151,-1410.45 157,-1404.45 163,-1404.45 163,-1404.45 336,-1404.45 336,-1404.45 342,-1404.45 348,-1410.45 348,-1416.45 348,-1416.45 348,-1458.45 348,-1458.45 348,-1464.45 342,-1470.45 336,-1470.45"/>
<text text-anchor="middle" x="249.5" y="-1443.05" font-family="Arial" font-size="18.00" fill="#f4f7fb">CircuitVerse Project</text>
<text text-anchor="middle" x="249.5" y="-1423.05" font-family="Arial" font-size="18.00" fill="#f4f7fb">(all scopes)</text>
</g>
<!-- project -->
<g id="node2" class="node">
<title>project</title>
<path fill="#202731" stroke="#5aa7ff" stroke-width="1.8" d="M408,-1321C408,-1321 91,-1321 91,-1321 85,-1321 79,-1315 79,-1309 79,-1309 79,-1267 79,-1267 79,-1261 85,-1255 91,-1255 91,-1255 408,-1255 408,-1255 414,-1255 420,-1261 420,-1267 420,-1267 420,-1309 420,-1309 420,-1315 414,-1321 408,-1321"/>
<text text-anchor="middle" x="249.5" y="-1293.6" font-family="Arial" font-size="18.00" fill="#f4f7fb">1. canonicaliseProject()</text>
<text text-anchor="middle" x="249.5" y="-1273.6" font-family="Arial" font-size="18.00" fill="#f4f7fb">Build the subcircuit dependency graph</text>
</g>
<!-- start&#45;&gt;project -->
<g id="edge1" class="edge">
<title>start&#45;&gt;project</title>
<path fill="none" stroke="#c1cbd6" stroke-width="1.9" d="M249.5,-1404.28C249.5,-1404.28 249.5,-1330.08 249.5,-1330.08"/>
<polygon fill="#c1cbd6" stroke="#c1cbd6" stroke-width="1.9" points="252.65,-1330.08 249.5,-1321.08 246.35,-1330.08 252.65,-1330.08"/>
</g>
<!-- kahn -->
<g id="node3" class="node">
<title>kahn</title>
<path fill="#30281a" stroke="#e3b64f" stroke-width="1.8" d="M392,-1186C392,-1186 107,-1186 107,-1186 101,-1186 95,-1180 95,-1174 95,-1174 95,-1112 95,-1112 95,-1106 101,-1100 107,-1100 107,-1100 392,-1100 392,-1100 398,-1100 404,-1106 404,-1112 404,-1112 404,-1174 404,-1174 404,-1180 398,-1186 392,-1186"/>
<text text-anchor="middle" x="249.5" y="-1158.6" font-family="Arial" font-size="18.00" fill="#f4f7fb">2. khansAlgorithm()</text>
<text text-anchor="middle" x="249.5" y="-1138.6" font-family="Arial" font-size="18.00" fill="#f4f7fb">Order child scopes before parents</text>
<text text-anchor="middle" x="249.5" y="-1118.6" font-family="Arial" font-size="18.00" fill="#f4f7fb">Reject cyclic dependencies</text>
</g>
<!-- project&#45;&gt;kahn -->
<g id="edge2" class="edge">
<title>project&#45;&gt;kahn</title>
<path fill="none" stroke="#c1cbd6" stroke-width="1.9" d="M249.5,-1254.73C249.5,-1254.73 249.5,-1195.02 249.5,-1195.02"/>
<polygon fill="#c1cbd6" stroke="#c1cbd6" stroke-width="1.9" points="252.65,-1195.02 249.5,-1186.02 246.35,-1195.02 252.65,-1195.02"/>
</g>
<!-- scope -->
<g id="node4" class="node">
<title>scope</title>
<path fill="#17292a" stroke="#4fd1c5" stroke-width="1.8" d="M421.5,-1031C421.5,-1031 77.5,-1031 77.5,-1031 71.5,-1031 65.5,-1025 65.5,-1019 65.5,-1019 65.5,-977 65.5,-977 65.5,-971 71.5,-965 77.5,-965 77.5,-965 421.5,-965 421.5,-965 427.5,-965 433.5,-971 433.5,-977 433.5,-977 433.5,-1019 433.5,-1019 433.5,-1025 427.5,-1031 421.5,-1031"/>
<text text-anchor="middle" x="249.5" y="-1003.6" font-family="Arial" font-size="18.00" fill="#f4f7fb">3. canonicaliseScope()</text>
<text text-anchor="middle" x="249.5" y="-983.6" font-family="Arial" font-size="18.00" fill="#f4f7fb">Process each scope in dependency order</text>
</g>
<!-- kahn&#45;&gt;scope -->
<g id="edge3" class="edge">
<title>kahn&#45;&gt;scope</title>
<path fill="none" stroke="#c1cbd6" stroke-width="1.9" d="M249.5,-1099.89C249.5,-1099.89 249.5,-1040.04 249.5,-1040.04"/>
<polygon fill="#c1cbd6" stroke="#c1cbd6" stroke-width="1.9" points="252.65,-1040.04 249.5,-1031.04 246.35,-1040.04 252.65,-1040.04"/>
</g>
<!-- cycle -->
<g id="node12" class="node">
<title>cycle</title>
<path fill="#321e22" stroke="#ff6b6b" stroke-width="1.8" d="M624.55,-1429.82C624.55,-1429.82 624.55,-1445.09 624.55,-1445.09 624.55,-1451.09 619.02,-1459.41 613.48,-1461.73 613.48,-1461.73 569.39,-1480.22 569.39,-1480.22 563.86,-1482.54 552.33,-1484.86 546.33,-1484.86 546.33,-1484.86 476.67,-1484.86 476.67,-1484.86 470.67,-1484.86 459.14,-1482.54 453.61,-1480.22 453.61,-1480.22 409.52,-1461.73 409.52,-1461.73 403.98,-1459.41 398.45,-1451.09 398.45,-1445.09 398.45,-1445.09 398.45,-1429.82 398.45,-1429.82 398.45,-1423.82 403.98,-1415.5 409.52,-1413.18 409.52,-1413.18 453.61,-1394.69 453.61,-1394.69 459.14,-1392.37 470.67,-1390.05 476.67,-1390.05 476.67,-1390.05 546.33,-1390.05 546.33,-1390.05 552.33,-1390.05 563.86,-1392.37 569.39,-1394.69 569.39,-1394.69 613.48,-1413.18 613.48,-1413.18 619.02,-1415.5 624.55,-1423.82 624.55,-1429.82"/>
<text text-anchor="middle" x="511.5" y="-1442.65" font-family="Arial" font-size="16.00" fill="#f4f7fb">Cycle detected</text>
<text text-anchor="middle" x="511.5" y="-1424.65" font-family="Arial" font-size="16.00" fill="#f4f7fb">Export fails</text>
</g>
<!-- kahn&#45;&gt;cycle -->
<g id="edge11" class="edge">
<title>kahn&#45;&gt;cycle</title>
<path fill="none" stroke="#ff6b6b" stroke-width="1.9" d="M404.3,-1143C417.96,-1143 426.75,-1143 426.75,-1143 426.75,-1143 426.75,-1396.94 426.75,-1396.94"/>
<polygon fill="#ff6b6b" stroke="#ff6b6b" stroke-width="1.9" points="423.6,-1396.94 426.75,-1405.94 429.9,-1396.94 423.6,-1396.94"/>
<text text-anchor="middle" x="536" y="-1284.6" font-family="Arial" font-size="13.00" fill="#ff8a8a">cycle</text>
</g>
<!-- nets -->
<g id="node5" class="node">
<title>nets</title>
<path fill="#1c2b25" stroke="#65d995" stroke-width="1.8" d="M437,-896C437,-896 62,-896 62,-896 56,-896 50,-890 50,-884 50,-884 50,-842 50,-842 50,-836 56,-830 62,-830 62,-830 437,-830 437,-830 443,-830 449,-836 449,-842 449,-842 449,-884 449,-884 449,-890 443,-896 437,-896"/>
<text text-anchor="middle" x="249.5" y="-868.6" font-family="Arial" font-size="18.00" fill="#f4f7fb">4. indexNodes() + discoverNets()</text>
<text text-anchor="middle" x="249.5" y="-848.6" font-family="Arial" font-size="18.00" fill="#f4f7fb">Union&#45;Find groups connected nodes into nets</text>
</g>
<!-- scope&#45;&gt;nets -->
<g id="edge4" class="edge">
<title>scope&#45;&gt;nets</title>
<path fill="none" stroke="#c1cbd6" stroke-width="1.9" d="M249.5,-964.98C249.5,-964.98 249.5,-905.15 249.5,-905.15"/>
<polygon fill="#c1cbd6" stroke="#c1cbd6" stroke-width="1.9" points="252.65,-905.15 249.5,-896.15 246.35,-905.15 252.65,-905.15"/>
</g>
<!-- drafts -->
<g id="node6" class="node">
<title>drafts</title>
<path fill="#202731" stroke="#5aa7ff" stroke-width="1.8" d="M461,-761C461,-761 38,-761 38,-761 32,-761 26,-755 26,-749 26,-749 26,-707 26,-707 26,-701 32,-695 38,-695 38,-695 461,-695 461,-695 467,-695 473,-701 473,-707 473,-707 473,-749 473,-749 473,-755 467,-761 461,-761"/>
<text text-anchor="middle" x="249.5" y="-733.6" font-family="Arial" font-size="18.00" fill="#f4f7fb">5. buildComponentDrafts()</text>
<text text-anchor="middle" x="249.5" y="-713.6" font-family="Arial" font-size="18.00" fill="#f4f7fb">Read component ports, properties and default state</text>
</g>
<!-- nets&#45;&gt;drafts -->
<g id="edge5" class="edge">
<title>nets&#45;&gt;drafts</title>
<path fill="none" stroke="#c1cbd6" stroke-width="1.9" d="M249.5,-829.98C249.5,-829.98 249.5,-770.15 249.5,-770.15"/>
<polygon fill="#c1cbd6" stroke="#c1cbd6" stroke-width="1.9" points="252.65,-770.15 249.5,-761.15 246.35,-770.15 252.65,-770.15"/>
</g>
<!-- structure -->
<g id="node7" class="node">
<title>structure</title>
<path fill="#272033" stroke="#b586f2" stroke-width="1.8" d="M465,-626C465,-626 34,-626 34,-626 28,-626 22,-620 22,-614 22,-614 22,-552 22,-552 22,-546 28,-540 34,-540 34,-540 465,-540 465,-540 471,-540 477,-546 477,-552 477,-552 477,-614 477,-614 477,-620 471,-626 465,-626"/>
<text text-anchor="middle" x="249.5" y="-598.6" font-family="Arial" font-size="18.00" fill="#f4f7fb">6. buildStructuralComponentData() + canonicalSort()</text>
<text text-anchor="middle" x="249.5" y="-578.6" font-family="Arial" font-size="18.00" fill="#f4f7fb">1&#45;WL fingerprints sort non&#45;interface components</text>
<text text-anchor="middle" x="249.5" y="-558.6" font-family="Arial" font-size="18.00" fill="#f4f7fb">Input/Output interface order is preserved</text>
</g>
<!-- drafts&#45;&gt;structure -->
<g id="edge6" class="edge">
<title>drafts&#45;&gt;structure</title>
<path fill="none" stroke="#c1cbd6" stroke-width="1.9" d="M249.5,-694.73C249.5,-694.73 249.5,-635.02 249.5,-635.02"/>
<polygon fill="#c1cbd6" stroke="#c1cbd6" stroke-width="1.9" points="252.65,-635.02 249.5,-626.02 246.35,-635.02 252.65,-635.02"/>
</g>
<!-- ids -->
<g id="node8" class="node">
<title>ids</title>
<path fill="#202731" stroke="#5aa7ff" stroke-width="1.8" d="M449.5,-471C449.5,-471 49.5,-471 49.5,-471 43.5,-471 37.5,-465 37.5,-459 37.5,-459 37.5,-417 37.5,-417 37.5,-411 43.5,-405 49.5,-405 49.5,-405 449.5,-405 449.5,-405 455.5,-405 461.5,-411 461.5,-417 461.5,-417 461.5,-459 461.5,-459 461.5,-465 455.5,-471 449.5,-471"/>
<text text-anchor="middle" x="249.5" y="-443.6" font-family="Arial" font-size="18.00" fill="#f4f7fb">7. assignComponentIds() + buildCanonicalNets()</text>
<text text-anchor="middle" x="249.5" y="-423.6" font-family="Arial" font-size="18.00" fill="#f4f7fb">Assign stable component and net IDs</text>
</g>
<!-- structure&#45;&gt;ids -->
<g id="edge7" class="edge">
<title>structure&#45;&gt;ids</title>
<path fill="none" stroke="#c1cbd6" stroke-width="1.9" d="M249.5,-539.89C249.5,-539.89 249.5,-480.04 249.5,-480.04"/>
<polygon fill="#c1cbd6" stroke="#c1cbd6" stroke-width="1.9" points="252.65,-480.04 249.5,-471.04 246.35,-480.04 252.65,-480.04"/>
</g>
<!-- layout -->
<g id="node9" class="node">
<title>layout</title>
<path fill="#17292a" stroke="#4fd1c5" stroke-width="1.8" d="M487,-336C487,-336 12,-336 12,-336 6,-336 0,-330 0,-324 0,-324 0,-282 0,-282 0,-276 6,-270 12,-270 12,-270 487,-270 487,-270 493,-270 499,-276 499,-282 499,-282 499,-324 499,-324 499,-330 493,-336 487,-336"/>
<text text-anchor="middle" x="249.5" y="-308.6" font-family="Arial" font-size="18.00" fill="#f4f7fb">8. buildLayout() + buildVisual()</text>
<text text-anchor="middle" x="249.5" y="-288.6" font-family="Arial" font-size="18.00" fill="#f4f7fb">Save routing, port positions, annotations and canvas state</text>
</g>
<!-- ids&#45;&gt;layout -->
<g id="edge8" class="edge">
<title>ids&#45;&gt;layout</title>
<path fill="none" stroke="#c1cbd6" stroke-width="1.9" d="M249.5,-404.98C249.5,-404.98 249.5,-345.15 249.5,-345.15"/>
<polygon fill="#c1cbd6" stroke="#c1cbd6" stroke-width="1.9" points="252.65,-345.15 249.5,-336.15 246.35,-345.15 252.65,-345.15"/>
</g>
<!-- scopehash -->
<g id="node10" class="node">
<title>scopehash</title>
<path fill="#1c2b25" stroke="#65d995" stroke-width="1.8" d="M421.5,-201C421.5,-201 77.5,-201 77.5,-201 71.5,-201 65.5,-195 65.5,-189 65.5,-189 65.5,-147 65.5,-147 65.5,-141 71.5,-135 77.5,-135 77.5,-135 421.5,-135 421.5,-135 427.5,-135 433.5,-141 433.5,-147 433.5,-147 433.5,-189 433.5,-189 433.5,-195 427.5,-201 421.5,-201"/>
<text text-anchor="middle" x="249.5" y="-173.6" font-family="Arial" font-size="18.00" fill="#f4f7fb">9. sha256()</text>
<text text-anchor="middle" x="249.5" y="-153.6" font-family="Arial" font-size="18.00" fill="#f4f7fb">Create the structural hash for each scope</text>
</g>
<!-- layout&#45;&gt;scopehash -->
<g id="edge9" class="edge">
<title>layout&#45;&gt;scopehash</title>
<path fill="none" stroke="#c1cbd6" stroke-width="1.9" d="M249.5,-269.98C249.5,-269.98 249.5,-210.15 249.5,-210.15"/>
<polygon fill="#c1cbd6" stroke="#c1cbd6" stroke-width="1.9" points="252.65,-210.15 249.5,-201.15 246.35,-210.15 252.65,-210.15"/>
</g>
<!-- final -->
<g id="node11" class="node">
<title>final</title>
<path fill="#173321" stroke="#65d995" stroke-width="2" d="M413.5,-66C413.5,-66 85.5,-66 85.5,-66 79.5,-66 73.5,-60 73.5,-54 73.5,-54 73.5,-12 73.5,-12 73.5,-6 79.5,0 85.5,0 85.5,0 413.5,0 413.5,0 419.5,0 425.5,-6 425.5,-12 425.5,-12 425.5,-54 425.5,-54 425.5,-60 419.5,-66 413.5,-66"/>
<text text-anchor="middle" x="249.5" y="-38.6" font-family="Arial" font-size="18.00" fill="#f4f7fb">10. Project hash + project metadata</text>
<text text-anchor="middle" x="249.5" y="-18.6" font-family="Arial" font-size="18.00" fill="#f4f7fb">Return CanonicalProject (Canonical v1)</text>
</g>
<!-- scopehash&#45;&gt;final -->
<g id="edge10" class="edge">
<title>scopehash&#45;&gt;final</title>
<path fill="none" stroke="#c1cbd6" stroke-width="1.9" d="M249.5,-134.98C249.5,-134.98 249.5,-75.15 249.5,-75.15"/>
<polygon fill="#c1cbd6" stroke="#c1cbd6" stroke-width="1.9" points="252.65,-75.15 249.5,-66.15 246.35,-75.15 252.65,-75.15"/>
</g>
</g>
</svg>
